{
	"patcher" : 	{
		"fileversion" : 1,
		"appversion" : 		{
			"major" : 8,
			"minor" : 5,
			"revision" : 4,
			"architecture" : "x64",
			"modernui" : 1
		}
,
		"classnamespace" : "box",
		"rect" : [ 945.0, 205.0, 1557.0, 1317.0 ],
		"bglocked" : 0,
		"openinpresentation" : 0,
		"default_fontsize" : 12.0,
		"default_fontface" : 0,
		"default_fontname" : "Arial",
		"gridonopen" : 1,
		"gridsize" : [ 15.0, 15.0 ],
		"gridsnaponopen" : 1,
		"objectsnaponopen" : 1,
		"statusbarvisible" : 2,
		"toolbarvisible" : 1,
		"lefttoolbarpinned" : 0,
		"toptoolbarpinned" : 0,
		"righttoolbarpinned" : 0,
		"bottomtoolbarpinned" : 0,
		"toolbars_unpinned_last_save" : 0,
		"tallnewobj" : 0,
		"boxanimatetime" : 200,
		"enablehscroll" : 1,
		"enablevscroll" : 1,
		"devicewidth" : 0.0,
		"description" : "",
		"digest" : "",
		"tags" : "",
		"style" : "",
		"subpatcher_template" : "",
		"assistshowspatchername" : 0,
		"boxes" : [ 			{
				"box" : 				{
					"fontname" : "Arial",
					"fontsize" : 13.0,
					"id" : "obj-34",
					"maxclass" : "newobj",
					"numinlets" : 1,
					"numoutlets" : 2,
					"outlettype" : [ "", "" ],
					"patching_rect" : [ 71.4516282081604, 607.449550216197963, 615.0, 23.0 ],
					"text" : "jit.phys.body @worldname 3d-world @shape cube @scale 5 0 5 @position 0 5 0 @mass 0 @restitution 1"
				}

			}
, 			{
				"box" : 				{
					"fontname" : "Arial",
					"fontsize" : 13.0,
					"id" : "obj-29",
					"maxclass" : "newobj",
					"numinlets" : 1,
					"numoutlets" : 2,
					"outlettype" : [ "", "" ],
					"patching_rect" : [ 71.4516282081604, 569.385035221576686, 620.0, 23.0 ],
					"text" : "jit.phys.body @worldname 3d-world @shape cube @scale 5 0 5 @position 0 -5 0 @mass 0 @restitution 1"
				}

			}
, 			{
				"box" : 				{
					"id" : "obj-22",
					"maxclass" : "newobj",
					"numinlets" : 1,
					"numoutlets" : 2,
					"outlettype" : [ "", "" ],
					"patching_rect" : [ 390.322569012641907, 403.8709557056427, 255.0, 22.0 ],
					"text" : "jit.phys.world @name 3d-world @drawto ---3D"
				}

			}
, 			{
				"box" : 				{
					"id" : "obj-145",
					"maxclass" : "newobj",
					"numinlets" : 1,
					"numoutlets" : 2,
					"outlettype" : [ "jit_gl_texture", "" ],
					"patching_rect" : [ 578.521876683235178, 1237.582832429408882, 175.0, 22.0 ],
					"text" : "jit.gl.texture sphere @name tex"
				}

			}
, 			{
				"box" : 				{
					"id" : "obj-144",
					"maxclass" : "jit.pwindow",
					"numinlets" : 1,
					"numoutlets" : 2,
					"outlettype" : [ "jit_matrix", "" ],
					"patching_rect" : [ 886.503387272357941, 1248.993435959815997, 80.0, 60.0 ],
					"sync" : 1
				}

			}
, 			{
				"box" : 				{
					"id" : "obj-141",
					"maxclass" : "newobj",
					"numinlets" : 1,
					"numoutlets" : 2,
					"outlettype" : [ "", "" ],
					"patching_rect" : [ 954.0537220835688, 747.694471056461339, 62.0, 22.0 ],
					"text" : "jit.time.sin"
				}

			}
, 			{
				"box" : 				{
					"annotation" : "## Smear a video ##",
					"bgmode" : 1,
					"border" : 0,
					"clickthrough" : 0,
					"enablehscroll" : 0,
					"enablevscroll" : 0,
					"id" : "obj-140",
					"lockeddragscroll" : 0,
					"lockedsize" : 0,
					"maxclass" : "bpatcher",
					"name" : "vz.slidr.maxpat",
					"numinlets" : 3,
					"numoutlets" : 1,
					"offset" : [ 0.0, 0.0 ],
					"outlettype" : [ "jit_gl_texture" ],
					"patching_rect" : [ 886.503387272357941, 1073.134237766265869, 138.0, 130.0 ],
					"prototypename" : "pixl",
					"varname" : "slidr",
					"viewvisibility" : 1
				}

			}
, 			{
				"box" : 				{
					"annotation" : "## A Basis Function-based video generator ##",
					"bgmode" : 1,
					"border" : 0,
					"clickthrough" : 0,
					"enablehscroll" : 0,
					"enablevscroll" : 0,
					"id" : "obj-139",
					"lockeddragscroll" : 0,
					"lockedsize" : 0,
					"maxclass" : "bpatcher",
					"name" : "vz.bfgener8r.maxpat",
					"numinlets" : 12,
					"numoutlets" : 1,
					"offset" : [ 0.0, 0.0 ],
					"outlettype" : [ "jit_gl_texture" ],
					"patching_rect" : [ 886.503387272357941, 802.859057307243347, 268.0, 234.0 ],
					"prototypename" : "pixl",
					"varname" : "bfgener8r",
					"viewvisibility" : 1
				}

			}
, 			{
				"box" : 				{
					"id" : "obj-136",
					"linecount" : 4,
					"maxclass" : "newobj",
					"numinlets" : 1,
					"numoutlets" : 2,
					"outlettype" : [ "jit_matrix", "" ],
					"patching_rect" : [ 106.218145072460175, 1064.526884914871061, 377.892581939697266, 62.0 ],
					"text" : "jit.gl.model sphere @file sphere.dae @lighting_enable 0 @smooth_shading 1 @drawto sphere @position 1.626689 2.99423 0.347982 @optimize 0 @rotatexyz -139.842743 -38.508797 34.374088 @texture tex @tex_map 2"
				}

			}
, 			{
				"box" : 				{
					"id" : "obj-96",
					"maxclass" : "newobj",
					"numinlets" : 1,
					"numoutlets" : 2,
					"outlettype" : [ "", "" ],
					"patching_rect" : [ 185.60057008266449, 829.291406190734847, 75.0, 22.0 ],
					"text" : "jit.phys.body"
				}

			}
, 			{
				"box" : 				{
					"id" : "obj-94",
					"maxclass" : "newobj",
					"numinlets" : 1,
					"numoutlets" : 3,
					"outlettype" : [ "jit_gl_texture", "", "" ],
					"patching_rect" : [ 106.218145072460175, 1147.364165935516212, 176.0, 22.0 ],
					"text" : "jit.gl.node ---3D @name sphere"
				}

			}
, 			{
				"box" : 				{
					"attr" : "rotatexyz",
					"fontface" : 0,
					"fontname" : "Arial",
					"fontsize" : 13.0,
					"id" : "obj-88",
					"lock" : 1,
					"maxclass" : "attrui",
					"numinlets" : 1,
					"numoutlets" : 1,
					"outlettype" : [ "" ],
					"parameter_enable" : 0,
					"patching_rect" : [ 1247.13090705871582, 448.676981867774998, 248.0, 23.0 ],
					"text_width" : 99.0
				}

			}
, 			{
				"box" : 				{
					"attr" : "enable",
					"fontface" : 0,
					"fontname" : "Arial",
					"fontsize" : 13.0,
					"id" : "obj-20",
					"maxclass" : "attrui",
					"numinlets" : 1,
					"numoutlets" : 1,
					"outlettype" : [ "" ],
					"parameter_enable" : 0,
					"patching_rect" : [ 1247.13090705871582, 347.676981867774998, 153.0, 23.0 ]
				}

			}
, 			{
				"box" : 				{
					"attr" : "specular",
					"fontface" : 0,
					"fontname" : "Arial",
					"fontsize" : 13.0,
					"id" : "obj-89",
					"lock" : 1,
					"maxclass" : "attrui",
					"numinlets" : 1,
					"numoutlets" : 1,
					"outlettype" : [ "" ],
					"parameter_enable" : 0,
					"patching_rect" : [ 902.053722083568573, 350.203823809623714, 150.0, 23.0 ]
				}

			}
, 			{
				"box" : 				{
					"attr" : "diffuse",
					"fontface" : 0,
					"fontname" : "Arial",
					"fontsize" : 13.0,
					"id" : "obj-3",
					"lock" : 1,
					"maxclass" : "attrui",
					"numinlets" : 1,
					"numoutlets" : 1,
					"outlettype" : [ "" ],
					"parameter_enable" : 0,
					"patching_rect" : [ 902.053722083568573, 325.203823809623714, 150.0, 23.0 ]
				}

			}
, 			{
				"box" : 				{
					"attr" : "ambient",
					"fontface" : 0,
					"fontname" : "Arial",
					"fontsize" : 13.0,
					"id" : "obj-90",
					"lock" : 1,
					"maxclass" : "attrui",
					"numinlets" : 1,
					"numoutlets" : 1,
					"outlettype" : [ "" ],
					"parameter_enable" : 0,
					"patching_rect" : [ 902.053722083568573, 300.203823809623714, 150.0, 23.0 ]
				}

			}
, 			{
				"box" : 				{
					"fontname" : "Arial",
					"fontsize" : 13.0,
					"id" : "obj-5",
					"maxclass" : "newobj",
					"numinlets" : 1,
					"numoutlets" : 1,
					"outlettype" : [ "" ],
					"patching_rect" : [ 768.067145226875255, 569.385035221576686, 102.0, 23.0 ],
					"text" : "jit.gl.light sphere"
				}

			}
, 			{
				"box" : 				{
					"attr" : "type",
					"fontface" : 0,
					"fontname" : "Arial",
					"fontsize" : 13.0,
					"id" : "obj-91",
					"lock" : 1,
					"maxclass" : "attrui",
					"numinlets" : 1,
					"numoutlets" : 1,
					"outlettype" : [ "" ],
					"parameter_enable" : 0,
					"patching_rect" : [ 902.053722083568573, 375.203823809623714, 202.0, 23.0 ]
				}

			}
, 			{
				"box" : 				{
					"attr" : "position",
					"fontface" : 0,
					"fontname" : "Arial",
					"fontsize" : 13.0,
					"id" : "obj-15",
					"lock" : 1,
					"maxclass" : "attrui",
					"numinlets" : 1,
					"numoutlets" : 1,
					"outlettype" : [ "" ],
					"parameter_enable" : 0,
					"patching_rect" : [ 902.053722083568573, 400.203823809623714, 248.0, 23.0 ]
				}

			}
, 			{
				"box" : 				{
					"attr" : "axes",
					"fontface" : 0,
					"fontname" : "Arial",
					"fontsize" : 13.0,
					"id" : "obj-23",
					"maxclass" : "attrui",
					"numinlets" : 1,
					"numoutlets" : 1,
					"outlettype" : [ "" ],
					"parameter_enable" : 0,
					"patching_rect" : [ 1247.13090705871582, 373.676981867774998, 153.0, 23.0 ]
				}

			}
, 			{
				"box" : 				{
					"id" : "obj-57",
					"maxclass" : "newobj",
					"numinlets" : 1,
					"numoutlets" : 2,
					"outlettype" : [ "", "" ],
					"patching_rect" : [ 442.822569012641907, 201.693012893199921, 202.0, 22.0 ],
					"text" : "jit.anim.drive @ease 0.1 @speed 10"
				}

			}
, 			{
				"box" : 				{
					"id" : "obj-54",
					"maxclass" : "newobj",
					"numinlets" : 1,
					"numoutlets" : 2,
					"outlettype" : [ "jit_gl_texture", "" ],
					"patching_rect" : [ 442.822569012641907, 239.370851695537567, 197.0, 22.0 ],
					"text" : "jit.gl.camera ---3D @position 0 0 15"
				}

			}
, 			{
				"box" : 				{
					"fontname" : "Arial",
					"fontsize" : 13.0,
					"id" : "obj-53",
					"maxclass" : "newobj",
					"numinlets" : 1,
					"numoutlets" : 2,
					"outlettype" : [ "", "" ],
					"patching_rect" : [ 827.425234642028727, 225.886124973297115, 87.0, 23.0 ],
					"text" : "jit.phys.picker"
				}

			}
, 			{
				"box" : 				{
					"attr" : "dynamics",
					"fontface" : 0,
					"fontname" : "Arial",
					"fontsize" : 13.0,
					"id" : "obj-24",
					"lock" : 1,
					"maxclass" : "attrui",
					"numinlets" : 1,
					"numoutlets" : 1,
					"outlettype" : [ "" ],
					"parameter_enable" : 0,
					"patching_rect" : [ 866.925234642028727, 101.579673533439632, 100.0, 23.0 ],
					"text_width" : 75.0
				}

			}
, 			{
				"box" : 				{
					"attr" : "hover",
					"fontface" : 0,
					"fontname" : "Arial",
					"fontsize" : 13.0,
					"id" : "obj-11",
					"lock" : 1,
					"maxclass" : "attrui",
					"numinlets" : 1,
					"numoutlets" : 1,
					"outlettype" : [ "" ],
					"parameter_enable" : 0,
					"patching_rect" : [ 866.925234642028727, 131.579673533439632, 100.0, 23.0 ],
					"text_width" : 75.0
				}

			}
, 			{
				"box" : 				{
					"attr" : "pickmode",
					"fontface" : 0,
					"fontname" : "Arial",
					"fontsize" : 13.0,
					"id" : "obj-14",
					"lock" : 1,
					"maxclass" : "attrui",
					"numinlets" : 1,
					"numoutlets" : 1,
					"outlettype" : [ "" ],
					"parameter_enable" : 0,
					"patching_rect" : [ 866.925234642028727, 161.579673533439632, 150.0, 23.0 ],
					"text_width" : 75.0
				}

			}
, 			{
				"box" : 				{
					"id" : "obj-40",
					"maxclass" : "newobj",
					"numinlets" : 1,
					"numoutlets" : 2,
					"outlettype" : [ "", "" ],
					"patching_rect" : [ 416.626327000000003, 74.607140936851494, 220.0, 22.0 ],
					"text" : "jit.gl.handle ---3D @radius 3 @enable 0"
				}

			}
, 			{
				"box" : 				{
					"id" : "obj-37",
					"maxclass" : "newobj",
					"numinlets" : 1,
					"numoutlets" : 1,
					"outlettype" : [ "" ],
					"patching_rect" : [ 827.425234642028727, 61.855462719196325, 115.0, 22.0 ],
					"text" : "jit.gl.physdraw ---3D"
				}

			}
, 			{
				"box" : 				{
					"id" : "obj-9",
					"maxclass" : "newobj",
					"numinlets" : 1,
					"numoutlets" : 1,
					"outlettype" : [ "" ],
					"patching_rect" : [ 177.981173694133759, 248.806451439857483, 167.0, 22.0 ],
					"text" : "loadmess sendphys gravity 0."
				}

			}
, 			{
				"box" : 				{
					"id" : "obj-4",
					"maxclass" : "newobj",
					"numinlets" : 1,
					"numoutlets" : 1,
					"outlettype" : [ "" ],
					"patching_rect" : [ 149.615060567855835, 281.709676265716553, 176.0, 22.0 ],
					"text" : "loadmess sendphys worldbox 1"
				}

			}
, 			{
				"box" : 				{
					"id" : "obj-2",
					"maxclass" : "newobj",
					"numinlets" : 1,
					"numoutlets" : 1,
					"outlettype" : [ "" ],
					"patching_rect" : [ 129.34883713722229, 313.322578549385071, 109.0, 22.0 ],
					"text" : "loadmess enable 1"
				}

			}
, 			{
				"box" : 				{
					"id" : "obj-13",
					"maxclass" : "button",
					"numinlets" : 1,
					"numoutlets" : 1,
					"outlettype" : [ "bang" ],
					"parameter_enable" : 0,
					"patching_rect" : [ 58.883511781692505, 107.970450341701508, 24.0, 24.0 ]
				}

			}
, 			{
				"box" : 				{
					"id" : "obj-10",
					"maxclass" : "newobj",
					"numinlets" : 1,
					"numoutlets" : 4,
					"outlettype" : [ "bang", "bang", "bang", "bang" ],
					"patching_rect" : [ 129.34883713722229, 167.441863059997559, 52.0, 22.0 ],
					"text" : "t b b b b"
				}

			}
, 			{
				"box" : 				{
					"id" : "obj-7",
					"maxclass" : "newobj",
					"numinlets" : 1,
					"numoutlets" : 1,
					"outlettype" : [ "bang" ],
					"patching_rect" : [ 59.550176382064819, 44.405797340869896, 58.0, 22.0 ],
					"text" : "loadbang"
				}

			}
, 			{
				"box" : 				{
					"id" : "obj-1",
					"maxclass" : "newobj",
					"numinlets" : 1,
					"numoutlets" : 3,
					"outlettype" : [ "jit_matrix", "bang", "" ],
					"patching_rect" : [ 51.929484605789185, 449.07501757144928, 413.0, 22.0 ],
					"text" : "jit.world ---3D @erase_color 0.2 0.2 0.2 @floating 1 @fsaa 1 @fsmenubar 0"
				}

			}
, 			{
				"box" : 				{
					"attr" : "enable",
					"id" : "obj-39",
					"maxclass" : "attrui",
					"numinlets" : 1,
					"numoutlets" : 1,
					"outlettype" : [ "" ],
					"parameter_enable" : 0,
					"patching_rect" : [ 827.425234642028727, 25.815194000000002, 150.0, 22.0 ]
				}

			}
, 			{
				"box" : 				{
					"attr" : "enable",
					"id" : "obj-41",
					"maxclass" : "attrui",
					"numinlets" : 1,
					"numoutlets" : 1,
					"outlettype" : [ "" ],
					"parameter_enable" : 0,
					"patching_rect" : [ 488.589999999999975, 25.815194000000002, 150.0, 22.0 ]
				}

			}
, 			{
				"box" : 				{
					"id" : "obj-42",
					"maxclass" : "message",
					"numinlets" : 2,
					"numoutlets" : 1,
					"outlettype" : [ "" ],
					"patching_rect" : [ 416.626327000000003, 25.815194000000002, 35.0, 22.0 ],
					"text" : "reset"
				}

			}
, 			{
				"box" : 				{
					"attr" : "ui_listen",
					"id" : "obj-58",
					"maxclass" : "attrui",
					"numinlets" : 1,
					"numoutlets" : 1,
					"outlettype" : [ "" ],
					"parameter_enable" : 0,
					"patching_rect" : [ 500.983862161636353, 138.629579199287434, 150.0, 22.0 ]
				}

			}
, 			{
				"box" : 				{
					"attr" : "automatic",
					"id" : "obj-59",
					"maxclass" : "attrui",
					"numinlets" : 1,
					"numoutlets" : 1,
					"outlettype" : [ "" ],
					"parameter_enable" : 0,
					"patching_rect" : [ 500.983862161636353, 167.441863059997559, 150.0, 22.0 ]
				}

			}
, 			{
				"box" : 				{
					"id" : "obj-73",
					"maxclass" : "message",
					"numinlets" : 2,
					"numoutlets" : 1,
					"outlettype" : [ "" ],
					"patching_rect" : [ 6.986555337905884, 756.825506567955017, 96.0, 22.0 ],
					"text" : "read sphere.dae"
				}

			}
, 			{
				"box" : 				{
					"id" : "obj-85",
					"maxclass" : "message",
					"numinlets" : 2,
					"numoutlets" : 1,
					"outlettype" : [ "" ],
					"patching_rect" : [ 58.882531076669693, 804.476515031200393, 50.0, 22.0 ],
					"text" : "dispose"
				}

			}
, 			{
				"box" : 				{
					"attr" : "scale",
					"id" : "obj-95",
					"maxclass" : "attrui",
					"numinlets" : 1,
					"numoutlets" : 1,
					"outlettype" : [ "" ],
					"parameter_enable" : 0,
					"patching_rect" : [ 1247.13090705871582, 487.036039597030481, 225.167788505554199, 22.0 ]
				}

			}
, 			{
				"box" : 				{
					"attr" : "material_mode",
					"id" : "obj-123",
					"maxclass" : "attrui",
					"numinlets" : 1,
					"numoutlets" : 1,
					"outlettype" : [ "" ],
					"parameter_enable" : 0,
					"patching_rect" : [ 197.986586032787329, 913.221513299114235, 278.859066009521428, 22.0 ]
				}

			}
, 			{
				"box" : 				{
					"attr" : "auto_material",
					"id" : "obj-127",
					"maxclass" : "attrui",
					"numinlets" : 1,
					"numoutlets" : 1,
					"outlettype" : [ "" ],
					"parameter_enable" : 0,
					"patching_rect" : [ 197.986586032787329, 950.420042630657235, 150.0, 22.0 ]
				}

			}
, 			{
				"box" : 				{
					"attr" : "lighting_enable",
					"id" : "obj-128",
					"maxclass" : "attrui",
					"numinlets" : 1,
					"numoutlets" : 1,
					"outlettype" : [ "" ],
					"parameter_enable" : 0,
					"patching_rect" : [ 197.986586032787329, 987.207228597625772, 150.0, 22.0 ]
				}

			}
, 			{
				"box" : 				{
					"attr" : "direction",
					"id" : "obj-129",
					"maxclass" : "attrui",
					"numinlets" : 1,
					"numoutlets" : 1,
					"outlettype" : [ "" ],
					"parameter_enable" : 0,
					"patching_rect" : [ 1243.775202214717865, 414.032682442050941, 258.053695976734161, 22.0 ]
				}

			}
, 			{
				"box" : 				{
					"attr" : "smooth_shading",
					"id" : "obj-137",
					"maxclass" : "attrui",
					"numinlets" : 1,
					"numoutlets" : 1,
					"outlettype" : [ "" ],
					"parameter_enable" : 0,
					"patching_rect" : [ 197.986586032787329, 1022.439930466720625, 150.0, 22.0 ]
				}

			}
, 			{
				"box" : 				{
					"attr" : "freq",
					"id" : "obj-142",
					"maxclass" : "attrui",
					"numinlets" : 1,
					"numoutlets" : 1,
					"outlettype" : [ "" ],
					"parameter_enable" : 0,
					"patching_rect" : [ 954.0537220835688, 711.654202337265019, 150.0, 22.0 ]
				}

			}
, 			{
				"box" : 				{
					"attr" : "speed",
					"id" : "obj-143",
					"maxclass" : "attrui",
					"numinlets" : 1,
					"numoutlets" : 1,
					"outlettype" : [ "" ],
					"parameter_enable" : 0,
					"patching_rect" : [ 1115.778554677963484, 711.654202337265019, 150.0, 22.0 ]
				}

			}
, 			{
				"box" : 				{
					"attr" : "enable",
					"id" : "obj-6",
					"maxclass" : "attrui",
					"numinlets" : 1,
					"numoutlets" : 1,
					"outlettype" : [ "" ],
					"parameter_enable" : 0,
					"patching_rect" : [ 866.925234642028727, 193.950641531364454, 150.0, 22.0 ]
				}

			}
, 			{
				"box" : 				{
					"id" : "obj-25",
					"maxclass" : "message",
					"numinlets" : 2,
					"numoutlets" : 1,
					"outlettype" : [ "" ],
					"patching_rect" : [ 390.322569012641907, 335.806440488334658, 35.0, 22.0 ],
					"text" : "reset"
				}

			}
, 			{
				"box" : 				{
					"attr" : "gravity",
					"id" : "obj-26",
					"maxclass" : "attrui",
					"numinlets" : 1,
					"numoutlets" : 1,
					"outlettype" : [ "" ],
					"parameter_enable" : 0,
					"patching_rect" : [ 442.822569012641907, 365.483858958717349, 257.741932272911072, 22.0 ]
				}

			}
, 			{
				"box" : 				{
					"attr" : "worldname",
					"id" : "obj-27",
					"maxclass" : "attrui",
					"numinlets" : 1,
					"numoutlets" : 1,
					"outlettype" : [ "" ],
					"parameter_enable" : 0,
					"patching_rect" : [ 243.019923127479558, 783.162374222618155, 253.225803375244141, 22.0 ]
				}

			}
, 			{
				"box" : 				{
					"id" : "obj-28",
					"maxclass" : "message",
					"numinlets" : 2,
					"numoutlets" : 1,
					"outlettype" : [ "" ],
					"patching_rect" : [ 424.758053421974182, 143.441863059997559, 68.0, 22.0 ],
					"text" : "anim_reset"
				}

			}
, 			{
				"box" : 				{
					"attr" : "restitution",
					"id" : "obj-32",
					"maxclass" : "attrui",
					"numinlets" : 1,
					"numoutlets" : 1,
					"outlettype" : [ "" ],
					"parameter_enable" : 0,
					"patching_rect" : [ 227.632831371612554, 743.16237541471105, 150.0, 22.0 ]
				}

			}
 ],
		"lines" : [ 			{
				"patchline" : 				{
					"destination" : [ "obj-2", 0 ],
					"source" : [ "obj-10", 0 ]
				}

			}
, 			{
				"patchline" : 				{
					"destination" : [ "obj-22", 0 ],
					"source" : [ "obj-10", 3 ]
				}

			}
, 			{
				"patchline" : 				{
					"destination" : [ "obj-4", 0 ],
					"source" : [ "obj-10", 1 ]
				}

			}
, 			{
				"patchline" : 				{
					"destination" : [ "obj-9", 0 ],
					"source" : [ "obj-10", 2 ]
				}

			}
, 			{
				"patchline" : 				{
					"destination" : [ "obj-53", 0 ],
					"source" : [ "obj-11", 0 ]
				}

			}
, 			{
				"patchline" : 				{
					"destination" : [ "obj-136", 0 ],
					"source" : [ "obj-123", 0 ]
				}

			}
, 			{
				"patchline" : 				{
					"destination" : [ "obj-136", 0 ],
					"source" : [ "obj-127", 0 ]
				}

			}
, 			{
				"patchline" : 				{
					"destination" : [ "obj-136", 0 ],
					"source" : [ "obj-128", 0 ]
				}

			}
, 			{
				"patchline" : 				{
					"destination" : [ "obj-5", 0 ],
					"source" : [ "obj-129", 0 ]
				}

			}
, 			{
				"patchline" : 				{
					"destination" : [ "obj-10", 0 ],
					"order" : 0,
					"source" : [ "obj-13", 0 ]
				}

			}
, 			{
				"patchline" : 				{
					"destination" : [ "obj-73", 0 ],
					"order" : 1,
					"source" : [ "obj-13", 0 ]
				}

			}
, 			{
				"patchline" : 				{
					"destination" : [ "obj-136", 0 ],
					"source" : [ "obj-137", 0 ]
				}

			}
, 			{
				"patchline" : 				{
					"destination" : [ "obj-140", 0 ],
					"source" : [ "obj-139", 0 ]
				}

			}
, 			{
				"patchline" : 				{
					"destination" : [ "obj-53", 0 ],
					"source" : [ "obj-14", 0 ]
				}

			}
, 			{
				"patchline" : 				{
					"destination" : [ "obj-144", 0 ],
					"order" : 0,
					"source" : [ "obj-140", 0 ]
				}

			}
, 			{
				"patchline" : 				{
					"destination" : [ "obj-145", 0 ],
					"order" : 1,
					"source" : [ "obj-140", 0 ]
				}

			}
, 			{
				"patchline" : 				{
					"destination" : [ "obj-139", 3 ],
					"source" : [ "obj-141", 0 ]
				}

			}
, 			{
				"patchline" : 				{
					"destination" : [ "obj-141", 0 ],
					"source" : [ "obj-142", 0 ]
				}

			}
, 			{
				"patchline" : 				{
					"destination" : [ "obj-141", 0 ],
					"source" : [ "obj-143", 0 ]
				}

			}
, 			{
				"patchline" : 				{
					"destination" : [ "obj-5", 0 ],
					"source" : [ "obj-15", 0 ]
				}

			}
, 			{
				"patchline" : 				{
					"destination" : [ "obj-1", 0 ],
					"source" : [ "obj-2", 0 ]
				}

			}
, 			{
				"patchline" : 				{
					"destination" : [ "obj-5", 0 ],
					"source" : [ "obj-20", 0 ]
				}

			}
, 			{
				"patchline" : 				{
					"destination" : [ "obj-5", 0 ],
					"source" : [ "obj-23", 0 ]
				}

			}
, 			{
				"patchline" : 				{
					"destination" : [ "obj-53", 0 ],
					"source" : [ "obj-24", 0 ]
				}

			}
, 			{
				"patchline" : 				{
					"destination" : [ "obj-22", 0 ],
					"source" : [ "obj-25", 0 ]
				}

			}
, 			{
				"patchline" : 				{
					"destination" : [ "obj-22", 0 ],
					"source" : [ "obj-26", 0 ]
				}

			}
, 			{
				"patchline" : 				{
					"destination" : [ "obj-96", 0 ],
					"source" : [ "obj-27", 0 ]
				}

			}
, 			{
				"patchline" : 				{
					"destination" : [ "obj-57", 0 ],
					"source" : [ "obj-28", 0 ]
				}

			}
, 			{
				"patchline" : 				{
					"destination" : [ "obj-5", 0 ],
					"source" : [ "obj-3", 0 ]
				}

			}
, 			{
				"patchline" : 				{
					"destination" : [ "obj-96", 0 ],
					"source" : [ "obj-32", 0 ]
				}

			}
, 			{
				"patchline" : 				{
					"destination" : [ "obj-37", 0 ],
					"source" : [ "obj-39", 0 ]
				}

			}
, 			{
				"patchline" : 				{
					"destination" : [ "obj-1", 0 ],
					"source" : [ "obj-4", 0 ]
				}

			}
, 			{
				"patchline" : 				{
					"destination" : [ "obj-1", 0 ],
					"source" : [ "obj-40", 0 ]
				}

			}
, 			{
				"patchline" : 				{
					"destination" : [ "obj-40", 0 ],
					"source" : [ "obj-41", 0 ]
				}

			}
, 			{
				"patchline" : 				{
					"destination" : [ "obj-40", 0 ],
					"source" : [ "obj-42", 0 ]
				}

			}
, 			{
				"patchline" : 				{
					"destination" : [ "obj-54", 0 ],
					"source" : [ "obj-57", 0 ]
				}

			}
, 			{
				"patchline" : 				{
					"destination" : [ "obj-57", 0 ],
					"source" : [ "obj-58", 0 ]
				}

			}
, 			{
				"patchline" : 				{
					"destination" : [ "obj-57", 0 ],
					"source" : [ "obj-59", 0 ]
				}

			}
, 			{
				"patchline" : 				{
					"destination" : [ "obj-53", 0 ],
					"source" : [ "obj-6", 0 ]
				}

			}
, 			{
				"patchline" : 				{
					"destination" : [ "obj-13", 0 ],
					"source" : [ "obj-7", 0 ]
				}

			}
, 			{
				"patchline" : 				{
					"destination" : [ "obj-136", 0 ],
					"source" : [ "obj-73", 0 ]
				}

			}
, 			{
				"patchline" : 				{
					"destination" : [ "obj-136", 0 ],
					"source" : [ "obj-85", 0 ]
				}

			}
, 			{
				"patchline" : 				{
					"destination" : [ "obj-5", 0 ],
					"source" : [ "obj-88", 0 ]
				}

			}
, 			{
				"patchline" : 				{
					"destination" : [ "obj-5", 0 ],
					"source" : [ "obj-89", 0 ]
				}

			}
, 			{
				"patchline" : 				{
					"destination" : [ "obj-1", 0 ],
					"source" : [ "obj-9", 0 ]
				}

			}
, 			{
				"patchline" : 				{
					"destination" : [ "obj-5", 0 ],
					"source" : [ "obj-90", 0 ]
				}

			}
, 			{
				"patchline" : 				{
					"destination" : [ "obj-5", 0 ],
					"source" : [ "obj-91", 0 ]
				}

			}
, 			{
				"patchline" : 				{
					"destination" : [ "obj-5", 0 ],
					"source" : [ "obj-95", 0 ]
				}

			}
, 			{
				"patchline" : 				{
					"destination" : [ "obj-136", 0 ],
					"source" : [ "obj-96", 0 ]
				}

			}
 ],
		"parameters" : 		{
			"obj-139::obj-100" : [ "Speed", "Speed", 1 ],
			"obj-139::obj-104" : [ "pictctrl[148]", "pictctrl[1]", 0 ],
			"obj-139::obj-15" : [ "pictctrl[34]", "pictctrl[1]", 0 ],
			"obj-139::obj-17" : [ "pictctrl[31]", "pictctrl[1]", 0 ],
			"obj-139::obj-21" : [ "Colorize", "Colorize", 0 ],
			"obj-139::obj-23" : [ "pictctrl[33]", "pictctrl[1]", 0 ],
			"obj-139::obj-26" : [ "pictctrl[32]", "pictctrl[1]", 0 ],
			"obj-139::obj-278" : [ "textbutton[3]", "textbutton[1]", 0 ],
			"obj-139::obj-37" : [ "pictctrl[28]", "pictctrl[1]", 0 ],
			"obj-139::obj-46" : [ "pictctrl[27]", "pictctrl[1]", 0 ],
			"obj-139::obj-5" : [ "Function", "Function", 0 ],
			"obj-139::obj-55" : [ "Bcolorize", "Bcolorize", 0 ],
			"obj-139::obj-56" : [ "Gcolorize", "Gcolorize", 0 ],
			"obj-139::obj-57" : [ "Rcolorize", "Rcolorize", 0 ],
			"obj-139::obj-59" : [ "pictctrl[106]", "pictctrl[1]", 0 ],
			"obj-139::obj-61" : [ "Zoom hi", "Zoom", 1 ],
			"obj-139::obj-63" : [ "Zoom range[2]", "Zoom range", 1 ],
			"obj-139::obj-76" : [ "pictctrl[29]", "pictctrl[1]", 0 ],
			"obj-139::obj-78" : [ "Zoom lo", "Zoom", 1 ],
			"obj-139::obj-8" : [ "pictctrl[30]", "pictctrl[1]", 0 ],
			"obj-139::obj-85" : [ "pictctrl[4]", "pictctrl[1]", 0 ],
			"obj-139::obj-91::obj-10::obj-11" : [ "Jitter[4]", "Jitter", 0 ],
			"obj-139::obj-91::obj-10::obj-19" : [ "Amount", "Amount", 0 ],
			"obj-139::obj-91::obj-11::obj-11" : [ "Jitter[3]", "Jitter", 0 ],
			"obj-139::obj-91::obj-11::obj-18" : [ "Smoothing", "Smoothing", 0 ],
			"obj-139::obj-91::obj-12::obj-23" : [ "Gain[5]", "Gain", 0 ],
			"obj-139::obj-91::obj-12::obj-25" : [ "Offset[5]", "Offset", 0 ],
			"obj-139::obj-91::obj-12::obj-27" : [ "Lacunarity[5]", "Lacunarity", 0 ],
			"obj-139::obj-91::obj-12::obj-31" : [ "H value[5]", "H value", 0 ],
			"obj-139::obj-91::obj-13::obj-11" : [ "Jitter", "Jitter", 0 ],
			"obj-139::obj-91::obj-15::obj-11" : [ "H value[6]", "H value", 0 ],
			"obj-139::obj-91::obj-15::obj-16" : [ "Lacunarity[6]", "Lacunarity", 0 ],
			"obj-139::obj-91::obj-15::obj-18" : [ "Offset[6]", "Offset", 0 ],
			"obj-139::obj-91::obj-15::obj-19" : [ "Gain[6]", "Gain", 0 ],
			"obj-139::obj-91::obj-1::obj-24" : [ "Gain", "Gain", 0 ],
			"obj-139::obj-91::obj-1::obj-26" : [ "Offset", "Offset", 0 ],
			"obj-139::obj-91::obj-1::obj-28" : [ "Lacunarity", "Lacunarity", 0 ],
			"obj-139::obj-91::obj-1::obj-32" : [ "H value", "H value", 0 ],
			"obj-139::obj-91::obj-3::obj-11" : [ "Distortion", "Distortion", 0 ],
			"obj-139::obj-91::obj-4::obj-24" : [ "Gain[3]", "Gain", 0 ],
			"obj-139::obj-91::obj-4::obj-26" : [ "Offset[3]", "Offset", 0 ],
			"obj-139::obj-91::obj-4::obj-28" : [ "Lacunarity[3]", "Lacunarity", 0 ],
			"obj-139::obj-91::obj-4::obj-32" : [ "H value[3]", "H value", 0 ],
			"obj-139::obj-91::obj-5::obj-23" : [ "Gain[4]", "Gain", 0 ],
			"obj-139::obj-91::obj-5::obj-25" : [ "Offset[4]", "Offset", 0 ],
			"obj-139::obj-91::obj-5::obj-27" : [ "Lacunarity[4]", "Lacunarity", 0 ],
			"obj-139::obj-91::obj-5::obj-31" : [ "H value[4]", "H value", 0 ],
			"obj-139::obj-91::obj-6::obj-11" : [ "Jitter[6]", "Jitter", 0 ],
			"obj-139::obj-91::obj-6::obj-24" : [ "X crackle", "X crackle", 0 ],
			"obj-139::obj-91::obj-6::obj-28" : [ "Y crackle", "Y crackle", 0 ],
			"obj-139::obj-91::obj-6::obj-29" : [ "Z crackle", "Z crackle", 0 ],
			"obj-139::obj-91::obj-9::obj-11" : [ "Jitter[5]", "Jitter", 0 ],
			"obj-139::obj-91::obj-9::obj-16" : [ "Shading", "Shading", 0 ],
			"obj-139::obj-96" : [ "pictctrl[35]", "pictctrl[1]", 0 ],
			"obj-140::obj-1" : [ "Slide down", "Slide down", 0 ],
			"obj-140::obj-21" : [ "pictctrl[36]", "pictctrl[1]", 0 ],
			"obj-140::obj-28" : [ "pictctrl[3]", "pictctrl[1]", 0 ],
			"obj-140::obj-50" : [ "Slide up", "Slide up", 0 ],
			"obj-140::obj-56::obj-23" : [ "gswitch2[2]", "gswitch2", 0 ],
			"obj-140::obj-6" : [ "range[4]", "range", 0 ],
			"parameterbanks" : 			{

			}
,
			"parameter_overrides" : 			{
				"obj-139::obj-91::obj-10::obj-11" : 				{
					"parameter_longname" : "Jitter[4]"
				}
,
				"obj-139::obj-91::obj-11::obj-11" : 				{
					"parameter_longname" : "Jitter[3]"
				}
,
				"obj-139::obj-91::obj-12::obj-23" : 				{
					"parameter_longname" : "Gain[5]"
				}
,
				"obj-139::obj-91::obj-12::obj-25" : 				{
					"parameter_longname" : "Offset[5]"
				}
,
				"obj-139::obj-91::obj-12::obj-27" : 				{
					"parameter_longname" : "Lacunarity[5]"
				}
,
				"obj-139::obj-91::obj-12::obj-31" : 				{
					"parameter_longname" : "H value[5]"
				}
,
				"obj-139::obj-91::obj-15::obj-11" : 				{
					"parameter_longname" : "H value[6]"
				}
,
				"obj-139::obj-91::obj-15::obj-16" : 				{
					"parameter_longname" : "Lacunarity[6]"
				}
,
				"obj-139::obj-91::obj-15::obj-18" : 				{
					"parameter_longname" : "Offset[6]"
				}
,
				"obj-139::obj-91::obj-15::obj-19" : 				{
					"parameter_longname" : "Gain[6]"
				}
,
				"obj-139::obj-91::obj-4::obj-24" : 				{
					"parameter_longname" : "Gain[3]"
				}
,
				"obj-139::obj-91::obj-4::obj-26" : 				{
					"parameter_longname" : "Offset[3]"
				}
,
				"obj-139::obj-91::obj-4::obj-28" : 				{
					"parameter_longname" : "Lacunarity[3]"
				}
,
				"obj-139::obj-91::obj-4::obj-32" : 				{
					"parameter_longname" : "H value[3]"
				}
,
				"obj-139::obj-91::obj-5::obj-23" : 				{
					"parameter_longname" : "Gain[4]"
				}
,
				"obj-139::obj-91::obj-5::obj-25" : 				{
					"parameter_longname" : "Offset[4]"
				}
,
				"obj-139::obj-91::obj-5::obj-27" : 				{
					"parameter_longname" : "Lacunarity[4]"
				}
,
				"obj-139::obj-91::obj-5::obj-31" : 				{
					"parameter_longname" : "H value[4]"
				}
,
				"obj-139::obj-91::obj-6::obj-11" : 				{
					"parameter_longname" : "Jitter[6]"
				}
,
				"obj-139::obj-91::obj-9::obj-11" : 				{
					"parameter_longname" : "Jitter[5]"
				}
,
				"obj-140::obj-21" : 				{
					"parameter_longname" : "pictctrl[36]"
				}

			}
,
			"inherited_shortname" : 1
		}
,
		"dependency_cache" : [ 			{
				"name" : "bfgenerator_UI.maxpat",
				"bootpath" : "C74:/packages/Vizzie/patchers/bfg",
				"type" : "JSON",
				"implicit" : 1
			}
, 			{
				"name" : "data-handler-L.maxpat",
				"bootpath" : "C74:/packages/Vizzie/patchers/utils",
				"type" : "JSON",
				"implicit" : 1
			}
, 			{
				"name" : "data-handler.maxpat",
				"bootpath" : "C74:/packages/Vizzie/patchers/utils",
				"type" : "JSON",
				"implicit" : 1
			}
, 			{
				"name" : "distorted_controls.maxpat",
				"bootpath" : "C74:/packages/Vizzie/patchers/bfg",
				"type" : "JSON",
				"implicit" : 1
			}
, 			{
				"name" : "exact_menu.maxpat",
				"bootpath" : "C74:/packages/Vizzie/patchers/utils",
				"type" : "JSON",
				"implicit" : 1
			}
, 			{
				"name" : "fractal_fbm_controls.maxpat",
				"bootpath" : "C74:/packages/Vizzie/patchers/bfg",
				"type" : "JSON",
				"implicit" : 1
			}
, 			{
				"name" : "fractal_hetero_controls.maxpat",
				"bootpath" : "C74:/packages/Vizzie/patchers/bfg",
				"type" : "JSON",
				"implicit" : 1
			}
, 			{
				"name" : "fractal_hybrid_controls.maxpat",
				"bootpath" : "C74:/packages/Vizzie/patchers/bfg",
				"type" : "JSON",
				"implicit" : 1
			}
, 			{
				"name" : "fractal_multi_controls.maxpat",
				"bootpath" : "C74:/packages/Vizzie/patchers/bfg",
				"type" : "JSON",
				"implicit" : 1
			}
, 			{
				"name" : "fractal_rigid_controls.maxpat",
				"bootpath" : "C74:/packages/Vizzie/patchers/bfg",
				"type" : "JSON",
				"implicit" : 1
			}
, 			{
				"name" : "jit.mo.time.mxo",
				"type" : "iLaX"
			}
, 			{
				"name" : "lo_hi_UI_control.maxpat",
				"bootpath" : "C74:/packages/Vizzie/patchers/utils",
				"type" : "JSON",
				"implicit" : 1
			}
, 			{
				"name" : "noise_voronoi_controls.maxpat",
				"bootpath" : "C74:/packages/Vizzie/patchers/bfg",
				"type" : "JSON",
				"implicit" : 1
			}
, 			{
				"name" : "noise_voronoi_crackle_controls.maxpat",
				"bootpath" : "C74:/packages/Vizzie/patchers/bfg",
				"type" : "JSON",
				"implicit" : 1
			}
, 			{
				"name" : "noise_voronoi_id_controls.maxpat",
				"bootpath" : "C74:/packages/Vizzie/patchers/bfg",
				"type" : "JSON",
				"implicit" : 1
			}
, 			{
				"name" : "noise_voronoi_smooth_controls.maxpat",
				"bootpath" : "C74:/packages/Vizzie/patchers/bfg",
				"type" : "JSON",
				"implicit" : 1
			}
, 			{
				"name" : "noise_voronoise_controls.maxpat",
				"bootpath" : "C74:/packages/Vizzie/patchers/bfg",
				"type" : "JSON",
				"implicit" : 1
			}
, 			{
				"name" : "video-handler.maxpat",
				"bootpath" : "C74:/packages/Vizzie/patchers/utils",
				"type" : "JSON",
				"implicit" : 1
			}
, 			{
				"name" : "vizzie-datatexconvert.js",
				"bootpath" : "C74:/packages/Vizzie/code",
				"type" : "TEXT",
				"implicit" : 1
			}
, 			{
				"name" : "vizzie-global.js",
				"bootpath" : "C74:/packages/Vizzie/code",
				"type" : "TEXT",
				"implicit" : 1
			}
, 			{
				"name" : "vz.bfgener8r.maxpat",
				"bootpath" : "C74:/packages/Vizzie/patchers",
				"type" : "JSON",
				"implicit" : 1
			}
, 			{
				"name" : "vz.slidr.maxpat",
				"bootpath" : "C74:/packages/Vizzie/patchers",
				"type" : "JSON",
				"implicit" : 1
			}
, 			{
				"name" : "vzgl-blackframe.maxpat",
				"bootpath" : "C74:/packages/Vizzie/patchers/utils",
				"type" : "JSON",
				"implicit" : 1
			}
, 			{
				"name" : "vzgl-object.maxpat",
				"bootpath" : "C74:/packages/Vizzie/patchers/utils",
				"type" : "JSON",
				"implicit" : 1
			}
, 			{
				"name" : "vzgl-outputdim.maxpat",
				"bootpath" : "C74:/packages/Vizzie/patchers/utils",
				"type" : "JSON",
				"implicit" : 1
			}
 ],
		"autosave" : 0
	}

}
